<?xml version="1.0" encoding="UTF-8" standalone="no"?>
<!-- Created with Inkscape (http://www.inkscape.org/) -->

<svg
   width="200mm"
   height="40mm"
   viewBox="0 0 200 40"
   version="1.1"
   id="svg1"
   inkscape:version="1.4.3 (0d15f75042, 2025-12-25)"
   sodipodi:docname="banner.svg"
   xmlns:inkscape="http://www.inkscape.org/namespaces/inkscape"
   xmlns:sodipodi="http://sodipodi.sourceforge.net/DTD/sodipodi-0.dtd"
   xmlns="http://www.w3.org/2000/svg"
   xmlns:svg="http://www.w3.org/2000/svg">
  <sodipodi:namedview
     id="namedview1"
     pagecolor="#ffffff"
     bordercolor="#000000"
     borderopacity="0.25"
     inkscape:showpageshadow="2"
     inkscape:pageopacity="0.0"
     inkscape:pagecheckerboard="0"
     inkscape:deskcolor="#d1d1d1"
     inkscape:document-units="mm"
     inkscape:zoom="2.0838024"
     inkscape:cx="519.72298"
     inkscape:cy="127.65126"
     inkscape:window-width="3828"
     inkscape:window-height="2088"
     inkscape:window-x="0"
     inkscape:window-y="0"
     inkscape:window-maximized="0"
     inkscape:current-layer="text6" />
  <defs
     id="defs1">
    <rect
       x="36.648164"
       y="35.969494"
       width="173.06077"
       height="126.23256"
       id="rect4" />
  </defs>
  <g
     inkscape:label="Layer 1"
     inkscape:groupmode="layer"
     id="layer1">
    <rect
       style="fill:#132028;fill-opacity:1;stroke-width:0.422587"
       id="rect1"
       width="152.17149"
       height="68.037529"
       x="-1.3318632"
       y="-7.1354589"
       ry="0"
       transform="matrix(0.99999167,-0.00408253,-0.70514377,0.70906436,0,0)"
       inkscape:label="black" />
    <path
       d="M 273.88314,-23.151693 129.35833,-22.127055 83.792338,57.453755 228.31713,56.429118 Z"
       style="fill:#3288d3;stroke-width:0.528944"
       id="path3"
       inkscape:label="blue" />
    <rect
       style="fill:#3fdee2;fill-opacity:1;stroke-width:0.464121"
       id="rect1-1-0-9-6-8-3-4"
       width="140.83075"
       height="88.677658"
       x="142.15817"
       y="-19.704456"
       ry="0"
       transform="matrix(0.99997537,-0.007019,-0.50069022,0.86562654,0,0)"
       inkscape:transform-center-x="56.916571"
       inkscape:transform-center-y="10.714275"
       inkscape:label="water" />
    <rect
       style="fill:#f8fc5d;fill-opacity:1;stroke-width:0.497909"
       id="rect1-1-0-9-6-8-3"
       width="152.03732"
       height="94.536354"
       x="165.58745"
       y="-22.564089"
       ry="0"
       transform="matrix(0.99997618,-0.00690156,-0.50703454,0.86192574,0,0)"
       inkscape:transform-center-x="61.445728"
       inkscape:transform-center-y="11.373305"
       inkscape:label="yellow" />
    <rect
       style="fill:#edd85f;fill-opacity:1;stroke-width:0.362527"
       id="rect1-1-0-9-6-8"
       width="117.76866"
       height="64.699295"
       x="153.62721"
       y="-37.607635"
       ry="0"
       transform="matrix(0.99998322,0.00579363,-0.57387775,-0.81894098,0,0)"
       inkscape:transform-center-x="47.596412"
       inkscape:transform-center-y="-7.3955465"
       inkscape:label="sand" />
    <rect
       style="fill:#fe8860;fill-opacity:1;stroke-width:0.464749"
       id="rect1-1-0-9-6"
       width="143.00261"
       height="87.567459"
       x="183.21373"
       y="-15.16122"
       ry="0"
       transform="matrix(0.99997715,-0.00676001,-0.5148584,0.85727523,0,0)"
       inkscape:transform-center-x="57.794418"
       inkscape:transform-center-y="10.478065"
       inkscape:label="orange" />
    <rect
       style="fill:#ff83a8;fill-opacity:1;stroke-width:0.466441"
       id="rect1-1-0-9"
       width="148.93906"
       height="84.690399"
       x="176.47479"
       y="-44.728474"
       ry="0"
       transform="matrix(0.99998143,0.00609383,-0.55445056,-0.83221666,0,0)"
       inkscape:transform-center-x="60.19387"
       inkscape:transform-center-y="-9.8375865"
       inkscape:label="peach" />
    <rect
       style="fill:#ff5871;fill-opacity:1;stroke-width:0.405024"
       id="rect1-1-0"
       width="126.92877"
       height="74.929428"
       x="197.06528"
       y="-2.0363507"
       ry="0"
       transform="matrix(0.99997935,-0.00642695,-0.5340664,0.84544254,0,0)"
       inkscape:label="red" />
    <rect
       style="fill:#f7c2e6;fill-opacity:1;stroke-width:0.422677"
       id="rect1-1"
       width="131.41789"
       height="78.81559"
       x="213.9361"
       y="21.465397"
       ry="0"
       transform="matrix(0.99997842,-0.00656978,-0.52568979,0.85067635,0,0)"
       inkscape:label="sakura" />
  </g>
  <g
     inkscape:groupmode="layer"
     id="layer2"
     inkscape:label="Layer 2">
    <g
       id="text6"
       style="font-size:2.11667px;font-family:'MS Gothic';-inkscape-font-specification:'MS Gothic, Normal';text-align:center;text-anchor:middle;fill:#3288d3;stroke-width:0.264583"
       aria-label="LICJAR.XYZ">
      <path
         style="font-size:22.5778px;font-family:Sans;-inkscape-font-specification:'Sans, Normal';fill:#f8c067"
         d="M 16.185872,27.752271 V 12.941234 h 1.85138 v 13.208013 h 7.337785 v 1.603024 z m 12.666155,0 v -1.603024 h 3.680182 V 14.52168 h -3.680182 v -1.580446 h 9.256898 v 1.580446 h -3.680181 v 11.627567 h 3.680181 v 1.603024 z m 19.326606,0.270934 q -1.828802,0 -3.296359,-0.903112 -1.444979,-0.92569 -2.302936,-2.641603 -0.857956,-1.715913 -0.857956,-4.131738 0,-2.393246 0.857956,-4.109159 0.857957,-1.715913 2.348092,-2.641603 1.512712,-0.92569 3.431825,-0.92569 1.332091,0 2.37067,0.541867 1.038578,0.541868 1.670757,1.264357 l -1.061157,1.196624 Q 50.77508,15.063547 50.030013,14.702302 49.284945,14.31848 48.359255,14.31848 q -1.422401,0 -2.483558,0.745067 -1.038578,0.72249 -1.625601,2.05458 -0.587023,1.33209 -0.587023,3.18347 0,1.851379 0.587023,3.228625 0.587023,1.354668 1.625601,2.099736 1.061157,0.745067 2.483558,0.745067 1.016001,0 1.828802,-0.428978 0.812801,-0.428978 1.512713,-1.219201 l 1.061157,1.151468 q -0.880535,1.016001 -2.009425,1.580446 -1.106312,0.564445 -2.573869,0.564445 z m 11.853355,0 q -1.241779,0 -2.438402,-0.587023 -1.196624,-0.609601 -1.964269,-1.873958 l 1.174045,-1.151467 q 0.632179,0.993423 1.467558,1.490134 0.857956,0.474134 1.715912,0.474134 1.603024,0 2.325514,-0.835378 0.745067,-0.857957 0.745067,-2.686759 v -8.353786 h -6.208895 v -1.580446 h 8.082853 v 10.092277 q 0,1.377246 -0.474134,2.528714 -0.451556,1.12889 -1.512713,1.806224 -1.061156,0.677334 -2.912536,0.677334 z m 12.553265,-8.556987 -0.699912,2.25778 h 4.425249 l -0.699912,-2.25778 q -0.383822,-1.241779 -0.767645,-2.46098 -0.361245,-1.241779 -0.699912,-2.528714 h -0.09031 q -0.361245,1.286935 -0.72249,2.528714 -0.361245,1.219201 -0.745068,2.46098 z m -4.51556,8.286053 4.989694,-14.811037 H 75.1817 l 4.989694,14.811037 h -1.986847 l -1.399823,-4.51556 h -5.373517 l -1.422401,4.51556 z m 15.081978,0 V 12.941234 h 4.605872 q 1.512712,0 2.66418,0.4064 1.174046,0.383823 1.828802,1.309513 0.677334,0.903112 0.677334,2.438402 0,1.715913 -0.903112,2.77707 -0.903112,1.038578 -2.415825,1.422401 l 3.770493,6.457251 H 91.234524 L 87.667231,21.49822 h -2.641602 v 6.254051 z m 1.873958,-7.789341 h 2.46098 q 1.738491,0 2.641603,-0.699912 0.925689,-0.72249 0.925689,-2.167469 0,-1.467557 -0.925689,-2.05458 -0.903112,-0.587023 -2.641603,-0.587023 h -2.46098 z"
         id="path2" />
      <path
         style="font-size:22.5778px;font-family:Sans;-inkscape-font-specification:'Sans, Normal';fill:#fffff3"
         d="m 101.21392,28.023205 q -0.76764,0 -1.309509,-0.51929 -0.51929,-0.541867 -0.51929,-1.377246 0,-0.857956 0.51929,-1.377245 0.541869,-0.541868 1.309509,-0.541868 0.76765,0 1.28694,0.541868 0.54186,0.519289 0.54186,1.377245 0,0.835379 -0.54186,1.377246 -0.51929,0.51929 -1.28694,0.51929 z m 7.99255,-0.270934 4.42525,-7.653874 -4.13174,-7.157163 h 2.07716 l 2.07715,3.79307 q 0.29352,0.496712 0.56445,0.993424 0.27093,0.496711 0.63218,1.151467 h 0.0903 q 0.31609,-0.654756 0.54187,-1.151467 0.24835,-0.496712 0.51929,-0.993424 l 2.032,-3.79307 h 1.98684 l -4.13173,7.247474 4.42525,7.563563 h -2.07716 L 116.00238,23.756 q -0.29351,-0.541867 -0.6096,-1.106312 -0.31608,-0.587023 -0.69991,-1.264357 h -0.0903 q -0.31609,0.677334 -0.6096,1.264357 -0.29351,0.564445 -0.58702,1.106312 l -2.21263,3.996271 z m 18.15256,0 v -5.283205 l -4.96712,-9.527832 h 1.98685 l 2.2352,4.402671 q 0.42898,0.835379 0.83538,1.693335 0.4064,0.857956 0.85796,1.761068 h 0.0903 q 0.45156,-0.903112 0.88053,-1.761068 0.42898,-0.857956 0.85796,-1.715913 l 2.14489,-4.380093 h 1.94169 l -4.96711,9.527832 v 5.283205 z m 9.18918,0 v -1.12889 l 8.26347,-12.124279 h -7.54098 v -1.580446 h 9.8665 v 1.12889 l -8.28606,12.101701 h 8.39894 v 1.603024 z"
         id="path4" />
    </g>
  </g>
</svg>
