<?xml version="1.0" encoding="UTF-8"?>
<svg width="200" height="40" viewBox="0 0 200 40" xmlns="http://www.w3.org/2000/svg">
     <rect width="200" height="40" fill="aliceblue" />
     <path d="M 45.6833,26.7879 H 44 V 11.4883 h 1.6833 V 9.81514 H 47.34 v -1.646 h 5.2367 v 1.646 h 1.6298 v 1.67316 h 1.6563 v 3.6427 h -1.9237 v -3.346 h -1.6563 v -1.673 h -4.6759 v 1.673 h -1.6298 v 14.7329 h 1.6298 v 1.6461 h 4.6759 v -1.6461 h 1.6563 v -5.0188 h 1.9237 v 5.2888 h -1.6563 v 1.6728 h -1.6298 v 1.7 H 47.34 v -1.7 h -1.6567 z m 13.3789,0 H 57.379 v -8.6348 h 1.6832 v -1.646 h 1.6567 v -1.6728 h 5.2364 v 1.6728 h 1.6298 v 1.646 h 1.6567 v 8.6348 h -1.6567 v 1.6728 h -1.6298 v 1.7 h -5.2364 v -1.7 h -1.6567 z m 1.9237,-0.2715 v 1.646 h 4.6755 v -1.646 h 1.6567 v -8.0681 h -1.6567 v -1.6727 h -4.6755 v 1.6727 h -1.6298 v 8.0681 z M 70.758,14.8327 h 1.9772 v 1.6728 h 1.3623 v -1.6728 h 1.9237 v 1.6728 h 3.0192 v -1.6728 h 1.9237 v 1.6728 h 1.6563 V 30.1592 H 80.6967 V 16.7756 h -1.3625 v 1.6727 H 77.6779 V 30.1592 H 75.7274 V 16.7756 h -1.3625 v 1.6727 H 72.7351 V 30.1592 H 70.758 Z m 13.379,0 h 1.9771 v 1.6728 h 1.3624 v -1.6728 h 5.2367 v 1.6728 h 1.6299 v 1.6461 h 1.6564 v 6.9616 h -1.6564 v 1.6732 h -1.6299 v 1.6728 h -5.2367 v -1.6728 h -1.3624 v 5.046 H 84.137 Z m 8.2824,11.6837 v -1.6728 h 1.6563 v -6.3953 h -1.6563 v -1.6727 h -4.6755 v 1.6727 H 86.114 v 6.3953 h 1.6299 v 1.6728 z M 97.5155,9.81361 h 1.977 v 6.69189 h 1.3635 v -1.6712 h 5.235 v 1.6728 h 1.63 v 1.646 h 1.657 v 12.0076 h -1.924 V 18.4499 h -1.656 v -1.6728 h -4.675 v 1.6728 h -1.6305 v 11.7108 h -1.977 z M 111.722,21.4976 h 10.18 v 1.9696 h -10.18 z M 124.273,8.16761 h 1.977 v 3.31909 h 1.629 v 3.346 h 1.657 v 3.3189 h 1.656 v 3.346 h 1.657 v 3.346 h 1.362 V 8.16914 h 1.924 V 30.1607 h -1.924 v -1.7 h -1.656 v -3.346 h -1.657 v -3.3188 h -1.656 v -3.346 h -1.63 V 15.131 h -1.362 v 15.0297 h -1.977 z m 15.061,18.61879 h -1.683 v -8.6348 h 1.683 v -1.6461 h 1.657 v -1.6728 h 5.237 v 1.6728 h 1.63 v 1.6461 h 1.656 v 8.6348 h -1.656 v 1.6728 h -1.63 v 1.7 h -5.237 v -1.7 h -1.657 z m 1.924,-0.2715 v 1.646 h 4.676 v -1.646 h 1.656 v -8.0681 h -1.656 V 16.774 h -4.676 v 1.6728 h -1.629 v 8.0681 z m 13.94,-9.7409 h -3.34 v -1.9428 h 3.34 V 9.81514 h 1.924 v 5.01916 h 4.942 v 1.9428 h -4.942 V 28.164 h 4.942 v 1.9967 h -5.235 v -1.7 h -1.63 z m 10.894,10.0109 h -1.683 V 18.15 h 1.683 v -1.646 h 1.656 v -1.6728 h 5.237 v 1.6728 h 1.63 v 1.646 h 1.657 v 5.3156 h -9.885 v 3.0493 h 1.629 v 1.646 h 4.676 v -1.646 h 1.657 V 24.842 h 1.924 v 1.9429 h -1.657 v 1.6728 h -1.63 v 1.6999 h -5.237 v -1.6969 h -1.656 z m 8.256,-5.2858 v -3.0492 h -1.657 v -1.6728 h -4.675 v 1.6728 h -1.63 v 3.0492 z m 3.44,3.346 h 1.977 v 3.3189 h 7.962 v -4.6953 h -8.255 v -1.6728 h -1.683 v -5.2888 h 1.683 v -1.6728 h 8.523 v 1.6728 h 1.656 v 3.616 h -1.924 v -3.346 h -7.962 v 4.722 h 8.229 v 1.6728 h 1.656 v 5.2888 h -1.656 v 1.7 h -8.523 v -1.7 h -1.683 z"
          aria-label="Comph-Notes" />
     <ellipse cx="16" cy="11" rx="6" ry="9" stroke="black" fill="black" stroke-width="1" />
     <ellipse cx="28" cy="11" rx="6" ry="9" stroke="black" fill="white" stroke-width="1" />
     <ellipse cx="16" cy="29" rx="6" ry="9" stroke="black" fill="white" stroke-width="1" />
     <ellipse cx="28" cy="29" rx="6" ry="9" stroke="black" fill="black" stroke-width="1" />
</svg>